<?xml version="1.0" standalone="no"?>
<!DOCTYPE svg PUBLIC "-//W3C//DTD SVG 20010904//EN"
 "http://www.w3.org/TR/2001/REC-SVG-20010904/DTD/svg10.dtd">
<svg version="1.0" xmlns="http://www.w3.org/2000/svg"
 width="1280.000000pt" height="720.000000pt" viewBox="0 0 1280.000000 720.000000"
 preserveAspectRatio="xMidYMid meet">

<g transform="translate(0.000000,720.000000) scale(0.100000,-0.100000)"
fill="#000000" stroke="none">
<path d="M1615 6510 c-123 -24 -233 -63 -335 -117 -114 -61 -169 -101 -273
-203 -194 -187 -303 -390 -353 -655 -18 -96 -19 -182 -19 -1970 0 -1505 3
-1886 13 -1954 80 -504 450 -896 947 -1003 l110 -23 4400 0 c4218 0 4404 1
4485 18 454 97 791 397 928 827 59 186 57 99 57 2140 0 1773 -1 1880 -18 1965
-104 511 -489 893 -987 979 -85 15 -485 16 -4479 15 -4189 -1 -4390 -1 -4476
-19z m2295 -547 c56 -28 80 -65 135 -207 87 -227 155 -465 155 -546 0 -26 5
-40 13 -40 11 0 109 40 317 130 36 15 121 53 190 85 169 77 360 161 445 195
39 15 111 47 160 71 146 71 188 83 291 83 118 -1 138 -14 192 -127 21 -45 44
-98 50 -117 37 -117 115 -441 132 -555 5 -27 13 -70 18 -95 6 -25 15 -76 22
-115 6 -38 25 -135 41 -215 32 -154 45 -221 59 -310 4 -30 13 -67 19 -82 16
-42 25 -267 12 -314 -33 -121 -183 -211 -661 -394 -118 -45 -260 -104 -315
-131 -205 -99 -512 -274 -685 -389 -126 -84 -140 -90 -219 -90 -81 0 -103 8
-188 68 -165 115 -276 315 -523 937 -60 151 -71 176 -79 171 -3 -2 -71 -30
-151 -61 -148 -59 -287 -123 -350 -161 -19 -12 -62 -36 -95 -54 -33 -17 -129
-73 -213 -123 -85 -51 -168 -100 -185 -110 -58 -34 -97 -78 -97 -111 0 -17 9
-112 19 -211 11 -99 25 -241 31 -315 6 -74 18 -196 25 -270 8 -74 19 -214 24
-310 23 -397 42 -677 47 -697 5 -19 14 -21 122 -25 98 -3 125 -7 165 -27 64
-31 81 -66 74 -148 -12 -129 -63 -157 -357 -190 -188 -21 -400 -23 -453 -4
-87 30 -125 96 -112 195 12 86 61 120 228 157 l59 13 -6 90 c-4 50 -11 141
-16 201 -5 61 -16 196 -25 300 -21 262 -32 373 -60 570 -44 316 -58 454 -85
835 -6 85 -15 214 -20 285 -16 212 -30 547 -40 920 -5 193 -16 424 -25 515 -9
91 -14 205 -13 253 3 98 -7 117 -62 117 -45 0 -87 20 -99 46 -27 60 -1 201 43
229 51 34 498 46 554 16 49 -26 78 -145 51 -204 -15 -33 -44 -47 -110 -56
l-54 -6 0 -52 c1 -29 4 -55 7 -58 3 -4 71 26 150 66 501 255 670 324 923 380
64 14 120 17 280 16 185 -2 203 -4 245 -24z"/>
<path d="M3480 5964 c-260 -49 -447 -121 -877 -337 -166 -83 -305 -148 -310
-143 -4 4 -10 45 -11 91 l-4 82 66 8 c57 6 69 11 92 38 20 24 25 38 21 64 -8
47 -28 83 -60 107 -25 18 -41 20 -180 20 -83 -1 -188 -4 -231 -8 -97 -10 -126
-33 -145 -113 -11 -47 -11 -57 6 -90 17 -36 22 -39 82 -49 35 -7 67 -18 72
-25 5 -8 9 -72 9 -144 0 -71 7 -197 15 -280 9 -82 20 -330 25 -550 5 -220 14
-479 20 -575 38 -635 68 -982 115 -1320 38 -272 44 -336 80 -790 14 -173 28
-345 31 -381 l6 -66 -79 -17 c-95 -20 -175 -56 -197 -87 -20 -30 -21 -110 -1
-149 20 -39 78 -68 162 -80 86 -12 454 21 555 51 116 34 171 115 135 201 -24
58 -86 81 -229 86 -108 4 -117 6 -122 26 -6 22 -28 339 -46 661 -6 105 -17
258 -25 340 -8 83 -19 204 -25 270 -6 66 -20 204 -31 307 -11 103 -19 215 -17
249 l3 63 65 45 c146 103 549 332 705 400 169 74 319 131 346 131 30 0 28 3
99 -175 245 -612 350 -804 499 -920 138 -105 204 -111 324 -28 153 106 475
292 714 411 54 28 166 76 248 107 83 31 159 60 170 65 11 4 67 27 125 50 324
131 446 217 470 336 17 79 16 81 -89 619 -33 171 -77 393 -96 495 -89 458
-170 691 -257 736 -65 34 -215 6 -357 -66 -32 -16 -123 -57 -202 -91 -120 -50
-285 -124 -584 -259 -64 -29 -328 -137 -352 -145 -20 -5 -23 -3 -23 20 0 82
-72 339 -154 553 -92 241 -112 255 -366 258 -91 1 -176 0 -190 -2z m136 -311
c-120 -241 -205 -505 -228 -716 -13 -125 5 -308 54 -541 17 -83 32 -162 32
-175 1 -21 -10 -27 -109 -62 -60 -22 -121 -43 -135 -48 -190 -64 -601 -267
-817 -404 -24 -15 -44 -27 -46 -27 -2 0 -7 132 -10 293 -4 160 -11 351 -16
422 -5 72 -12 175 -16 230 -3 55 -12 203 -21 329 -8 126 -11 233 -7 237 4 4
49 24 98 44 50 20 131 58 180 84 50 27 142 75 205 109 129 68 379 171 545 225
61 20 130 42 155 51 25 8 73 15 108 15 l62 1 -34 -67z m2038 -210 c10 -46 54
-253 71 -333 50 -238 70 -335 125 -620 33 -173 67 -341 76 -373 19 -70 21
-165 5 -195 -21 -39 -92 -82 -186 -111 -291 -91 -931 -421 -1352 -698 -78 -51
-153 -93 -166 -93 -28 0 -47 19 -119 125 -88 127 -167 294 -238 500 -110 321
-142 451 -220 895 -17 96 -33 189 -37 206 -6 38 11 47 59 33 55 -15 216 -10
308 10 74 17 212 62 275 90 11 5 133 63 270 129 410 196 759 347 1055 455 8 3
27 6 41 6 21 1 28 -5 33 -26z"/>
</g>
</svg>
